<mxfile host="app.diagrams.net" modified="2024-04-21T15:58:40.977Z" agent="Mozilla/5.0 (Windows NT 10.0; Win64; x64; rv:124.0) Gecko/20100101 Firefox/124.0" etag="5dsVBt-oBF0W-4Njk1u7" version="24.2.1" type="github">
  <diagram id="kgpKYQtTHZ0yAKxKKP6v" name="Page-1">
    <mxGraphModel dx="765" dy="978" grid="1" gridSize="10" guides="1" tooltips="1" connect="1" arrows="1" fold="1" page="1" pageScale="1" pageWidth="850" pageHeight="1100" math="0" shadow="0">
      <root>
        <mxCell id="0" />
        <mxCell id="1" parent="0" />
        <mxCell id="l6efxQQN4plKstj2aTA1-14" value="" style="edgeStyle=none;curved=1;rounded=0;orthogonalLoop=1;jettySize=auto;html=1;fontSize=12;startSize=8;endSize=8;" edge="1" parent="1" source="l6efxQQN4plKstj2aTA1-2">
          <mxGeometry relative="1" as="geometry">
            <mxPoint x="425" y="420" as="targetPoint" />
          </mxGeometry>
        </mxCell>
        <mxCell id="l6efxQQN4plKstj2aTA1-2" value="Input" style="shape=parallelogram;perimeter=parallelogramPerimeter;whiteSpace=wrap;html=1;fixedSize=1;" vertex="1" parent="1">
          <mxGeometry x="365" y="240" width="120" height="60" as="geometry" />
        </mxCell>
        <mxCell id="l6efxQQN4plKstj2aTA1-5" value="" style="strokeWidth=2;html=1;shape=mxgraph.flowchart.annotation_2;align=left;labelPosition=right;pointerEvents=1;" vertex="1" parent="1">
          <mxGeometry x="570" y="70" width="20" height="20" as="geometry" />
        </mxCell>
        <mxCell id="l6efxQQN4plKstj2aTA1-13" value="" style="edgeStyle=none;curved=1;rounded=0;orthogonalLoop=1;jettySize=auto;html=1;fontSize=12;startSize=8;endSize=8;" edge="1" parent="1" source="l6efxQQN4plKstj2aTA1-6" target="l6efxQQN4plKstj2aTA1-2">
          <mxGeometry relative="1" as="geometry" />
        </mxCell>
        <mxCell id="l6efxQQN4plKstj2aTA1-6" value="Start" style="strokeWidth=2;html=1;shape=mxgraph.flowchart.start_1;whiteSpace=wrap;" vertex="1" parent="1">
          <mxGeometry x="375" y="80" width="100" height="60" as="geometry" />
        </mxCell>
        <mxCell id="l6efxQQN4plKstj2aTA1-12" value="" style="endArrow=none;dashed=1;html=1;rounded=0;fontSize=12;startSize=8;endSize=8;curved=1;entryX=0;entryY=0.5;entryDx=0;entryDy=0;entryPerimeter=0;" edge="1" parent="1" target="l6efxQQN4plKstj2aTA1-5">
          <mxGeometry width="50" height="50" relative="1" as="geometry">
            <mxPoint x="475" y="110" as="sourcePoint" />
            <mxPoint x="525" y="60" as="targetPoint" />
            <Array as="points">
              <mxPoint x="520" y="110" />
              <mxPoint x="530" y="80" />
            </Array>
          </mxGeometry>
        </mxCell>
        <mxCell id="l6efxQQN4plKstj2aTA1-21" value="" style="edgeStyle=none;curved=1;rounded=0;orthogonalLoop=1;jettySize=auto;html=1;fontSize=12;startSize=8;endSize=8;" edge="1" parent="1" source="l6efxQQN4plKstj2aTA1-15" target="l6efxQQN4plKstj2aTA1-20">
          <mxGeometry relative="1" as="geometry" />
        </mxCell>
        <mxCell id="l6efxQQN4plKstj2aTA1-42" value="" style="edgeStyle=none;curved=1;rounded=0;orthogonalLoop=1;jettySize=auto;html=1;fontSize=12;startSize=8;endSize=8;" edge="1" parent="1" source="l6efxQQN4plKstj2aTA1-15" target="l6efxQQN4plKstj2aTA1-16">
          <mxGeometry relative="1" as="geometry" />
        </mxCell>
        <mxCell id="l6efxQQN4plKstj2aTA1-15" value="Is value == -1 ?" style="rhombus;whiteSpace=wrap;html=1;" vertex="1" parent="1">
          <mxGeometry x="365" y="420" width="120" height="110" as="geometry" />
        </mxCell>
        <mxCell id="l6efxQQN4plKstj2aTA1-43" value="" style="edgeStyle=none;curved=1;rounded=0;orthogonalLoop=1;jettySize=auto;html=1;fontSize=12;startSize=8;endSize=8;" edge="1" parent="1" source="l6efxQQN4plKstj2aTA1-16" target="l6efxQQN4plKstj2aTA1-18">
          <mxGeometry relative="1" as="geometry" />
        </mxCell>
        <mxCell id="l6efxQQN4plKstj2aTA1-16" value="Free memory allocation for command" style="whiteSpace=wrap;html=1;" vertex="1" parent="1">
          <mxGeometry x="580" y="445" width="120" height="60" as="geometry" />
        </mxCell>
        <mxCell id="l6efxQQN4plKstj2aTA1-18" value="End" style="strokeWidth=2;html=1;shape=mxgraph.flowchart.terminator;whiteSpace=wrap;" vertex="1" parent="1">
          <mxGeometry x="770" y="445" width="100" height="60" as="geometry" />
        </mxCell>
        <mxCell id="l6efxQQN4plKstj2aTA1-32" value="" style="edgeStyle=none;curved=1;rounded=0;orthogonalLoop=1;jettySize=auto;html=1;fontSize=12;startSize=8;endSize=8;" edge="1" parent="1" source="l6efxQQN4plKstj2aTA1-20" target="l6efxQQN4plKstj2aTA1-31">
          <mxGeometry relative="1" as="geometry" />
        </mxCell>
        <mxCell id="l6efxQQN4plKstj2aTA1-20" value="Display prompt" style="whiteSpace=wrap;html=1;" vertex="1" parent="1">
          <mxGeometry x="366" y="624" width="120" height="60" as="geometry" />
        </mxCell>
        <mxCell id="l6efxQQN4plKstj2aTA1-23" value="True" style="text;html=1;align=center;verticalAlign=middle;whiteSpace=wrap;rounded=0;fontSize=16;" vertex="1" parent="1">
          <mxGeometry x="485" y="440" width="60" height="30" as="geometry" />
        </mxCell>
        <mxCell id="l6efxQQN4plKstj2aTA1-24" value="False" style="text;html=1;align=center;verticalAlign=middle;whiteSpace=wrap;rounded=0;fontSize=16;" vertex="1" parent="1">
          <mxGeometry x="431" y="550" width="60" height="30" as="geometry" />
        </mxCell>
        <mxCell id="l6efxQQN4plKstj2aTA1-30" value="" style="edgeStyle=none;curved=1;rounded=0;orthogonalLoop=1;jettySize=auto;html=1;fontSize=12;startSize=8;endSize=8;" edge="1" parent="1" source="l6efxQQN4plKstj2aTA1-25" target="l6efxQQN4plKstj2aTA1-29">
          <mxGeometry relative="1" as="geometry" />
        </mxCell>
        <mxCell id="l6efxQQN4plKstj2aTA1-40" value="" style="edgeStyle=none;curved=1;rounded=0;orthogonalLoop=1;jettySize=auto;html=1;fontSize=12;startSize=8;endSize=8;" edge="1" parent="1" source="l6efxQQN4plKstj2aTA1-25" target="l6efxQQN4plKstj2aTA1-27">
          <mxGeometry relative="1" as="geometry" />
        </mxCell>
        <mxCell id="l6efxQQN4plKstj2aTA1-25" value="&lt;div&gt;Does&lt;/div&gt;&lt;div&gt;the&lt;/div&gt;&lt;div&gt;command&lt;/div&gt;&lt;div&gt;exist and&lt;/div&gt;&lt;div&gt;executable&lt;br&gt;&lt;/div&gt;&lt;div&gt;?&lt;br&gt; &lt;/div&gt;" style="rhombus;whiteSpace=wrap;html=1;" vertex="1" parent="1">
          <mxGeometry x="366" y="920" width="125" height="115" as="geometry" />
        </mxCell>
        <mxCell id="l6efxQQN4plKstj2aTA1-51" value="" style="edgeStyle=none;curved=1;rounded=0;orthogonalLoop=1;jettySize=auto;html=1;fontSize=12;startSize=8;endSize=8;" edge="1" parent="1" source="l6efxQQN4plKstj2aTA1-27">
          <mxGeometry relative="1" as="geometry">
            <mxPoint x="428.5" y="1280.5" as="targetPoint" />
          </mxGeometry>
        </mxCell>
        <mxCell id="l6efxQQN4plKstj2aTA1-27" value="Create child process : fork()" style="whiteSpace=wrap;html=1;" vertex="1" parent="1">
          <mxGeometry x="368.5" y="1110.5" width="120" height="60" as="geometry" />
        </mxCell>
        <mxCell id="l6efxQQN4plKstj2aTA1-37" value="" style="edgeStyle=none;curved=1;rounded=0;orthogonalLoop=1;jettySize=auto;html=1;fontSize=12;startSize=8;endSize=8;" edge="1" parent="1" source="l6efxQQN4plKstj2aTA1-29" target="l6efxQQN4plKstj2aTA1-36">
          <mxGeometry relative="1" as="geometry" />
        </mxCell>
        <mxCell id="l6efxQQN4plKstj2aTA1-29" value="Free memory allocation for tokens and command" style="whiteSpace=wrap;html=1;" vertex="1" parent="1">
          <mxGeometry x="580" y="949" width="120" height="60" as="geometry" />
        </mxCell>
        <mxCell id="l6efxQQN4plKstj2aTA1-33" value="" style="edgeStyle=none;curved=1;rounded=0;orthogonalLoop=1;jettySize=auto;html=1;fontSize=12;startSize=8;endSize=8;" edge="1" parent="1" source="l6efxQQN4plKstj2aTA1-31" target="l6efxQQN4plKstj2aTA1-25">
          <mxGeometry relative="1" as="geometry" />
        </mxCell>
        <mxCell id="l6efxQQN4plKstj2aTA1-31" value="Memory allocation for tokens of the command" style="whiteSpace=wrap;html=1;" vertex="1" parent="1">
          <mxGeometry x="366" y="805" width="120" height="60" as="geometry" />
        </mxCell>
        <mxCell id="l6efxQQN4plKstj2aTA1-34" value="True" style="text;html=1;align=center;verticalAlign=middle;whiteSpace=wrap;rounded=0;fontSize=16;" vertex="1" parent="1">
          <mxGeometry x="425" y="1050" width="60" height="30" as="geometry" />
        </mxCell>
        <mxCell id="l6efxQQN4plKstj2aTA1-35" value="False" style="text;html=1;align=center;verticalAlign=middle;whiteSpace=wrap;rounded=0;fontSize=16;" vertex="1" parent="1">
          <mxGeometry x="486" y="949" width="60" height="30" as="geometry" />
        </mxCell>
        <mxCell id="l6efxQQN4plKstj2aTA1-36" value="End" style="strokeWidth=2;html=1;shape=mxgraph.flowchart.terminator;whiteSpace=wrap;" vertex="1" parent="1">
          <mxGeometry x="770" y="949" width="100" height="60" as="geometry" />
        </mxCell>
        <mxCell id="l6efxQQN4plKstj2aTA1-91" value="" style="edgeStyle=none;curved=1;rounded=0;orthogonalLoop=1;jettySize=auto;html=1;fontSize=12;startSize=8;endSize=8;" edge="1" parent="1" source="l6efxQQN4plKstj2aTA1-48" target="l6efxQQN4plKstj2aTA1-64">
          <mxGeometry relative="1" as="geometry">
            <Array as="points">
              <mxPoint x="530" y="1490" />
              <mxPoint x="510" y="1410" />
            </Array>
          </mxGeometry>
        </mxCell>
        <mxCell id="l6efxQQN4plKstj2aTA1-48" value="Wait()" style="whiteSpace=wrap;html=1;" vertex="1" parent="1">
          <mxGeometry x="592.5" y="1460" width="120" height="60" as="geometry" />
        </mxCell>
        <mxCell id="l6efxQQN4plKstj2aTA1-53" value="" style="edgeStyle=none;curved=1;rounded=0;orthogonalLoop=1;jettySize=auto;html=1;fontSize=12;startSize=8;endSize=8;" edge="1" parent="1" source="l6efxQQN4plKstj2aTA1-52" target="l6efxQQN4plKstj2aTA1-48">
          <mxGeometry relative="1" as="geometry" />
        </mxCell>
        <mxCell id="l6efxQQN4plKstj2aTA1-90" value="" style="edgeStyle=none;curved=1;rounded=0;orthogonalLoop=1;jettySize=auto;html=1;fontSize=12;startSize=8;endSize=8;" edge="1" parent="1" source="l6efxQQN4plKstj2aTA1-52">
          <mxGeometry relative="1" as="geometry">
            <mxPoint x="827.5" y="1337.5" as="targetPoint" />
          </mxGeometry>
        </mxCell>
        <mxCell id="l6efxQQN4plKstj2aTA1-52" value="&lt;div&gt;Is&lt;/div&gt;&lt;div&gt;child process&lt;/div&gt;&lt;div&gt;&amp;gt; 0&lt;br&gt;&lt;/div&gt;&lt;div&gt;?&lt;br&gt; &lt;/div&gt;" style="rhombus;whiteSpace=wrap;html=1;" vertex="1" parent="1">
          <mxGeometry x="590" y="1280" width="125" height="115" as="geometry" />
        </mxCell>
        <mxCell id="l6efxQQN4plKstj2aTA1-54" value="True" style="text;html=1;align=center;verticalAlign=middle;whiteSpace=wrap;rounded=0;fontSize=16;" vertex="1" parent="1">
          <mxGeometry x="649" y="1410" width="60" height="30" as="geometry" />
        </mxCell>
        <mxCell id="l6efxQQN4plKstj2aTA1-60" value="" style="edgeStyle=none;curved=1;rounded=0;orthogonalLoop=1;jettySize=auto;html=1;fontSize=12;startSize=8;endSize=8;" edge="1" source="l6efxQQN4plKstj2aTA1-61" target="l6efxQQN4plKstj2aTA1-63" parent="1">
          <mxGeometry relative="1" as="geometry" />
        </mxCell>
        <mxCell id="l6efxQQN4plKstj2aTA1-61" value="Free memory allocation for tokens and command" style="whiteSpace=wrap;html=1;" vertex="1" parent="1">
          <mxGeometry x="830" y="1307.5" width="120" height="60" as="geometry" />
        </mxCell>
        <mxCell id="l6efxQQN4plKstj2aTA1-62" value="False" style="text;html=1;align=center;verticalAlign=middle;whiteSpace=wrap;rounded=0;fontSize=16;" vertex="1" parent="1">
          <mxGeometry x="492" y="1301" width="60" height="30" as="geometry" />
        </mxCell>
        <mxCell id="l6efxQQN4plKstj2aTA1-63" value="End" style="strokeWidth=2;html=1;shape=mxgraph.flowchart.terminator;whiteSpace=wrap;" vertex="1" parent="1">
          <mxGeometry x="1020" y="1307.5" width="100" height="60" as="geometry" />
        </mxCell>
        <mxCell id="l6efxQQN4plKstj2aTA1-68" value="" style="edgeStyle=none;curved=1;rounded=0;orthogonalLoop=1;jettySize=auto;html=1;fontSize=12;startSize=8;endSize=8;" edge="1" parent="1" source="l6efxQQN4plKstj2aTA1-64" target="l6efxQQN4plKstj2aTA1-67">
          <mxGeometry relative="1" as="geometry" />
        </mxCell>
        <mxCell id="l6efxQQN4plKstj2aTA1-88" value="" style="edgeStyle=none;curved=1;rounded=0;orthogonalLoop=1;jettySize=auto;html=1;fontSize=12;startSize=8;endSize=8;" edge="1" parent="1" source="l6efxQQN4plKstj2aTA1-64" target="l6efxQQN4plKstj2aTA1-52">
          <mxGeometry relative="1" as="geometry" />
        </mxCell>
        <mxCell id="l6efxQQN4plKstj2aTA1-64" value="&lt;div&gt;Is&lt;/div&gt;&lt;div&gt;child process&lt;/div&gt;&lt;div&gt;== 0&lt;br&gt;&lt;/div&gt;&lt;div&gt;?&lt;br&gt; &lt;/div&gt;" style="rhombus;whiteSpace=wrap;html=1;" vertex="1" parent="1">
          <mxGeometry x="367" y="1280" width="125" height="115" as="geometry" />
        </mxCell>
        <mxCell id="l6efxQQN4plKstj2aTA1-74" value="" style="edgeStyle=none;curved=1;rounded=0;orthogonalLoop=1;jettySize=auto;html=1;fontSize=12;startSize=8;endSize=8;" edge="1" parent="1" source="l6efxQQN4plKstj2aTA1-67" target="l6efxQQN4plKstj2aTA1-73">
          <mxGeometry relative="1" as="geometry" />
        </mxCell>
        <mxCell id="l6efxQQN4plKstj2aTA1-67" value="Execute comand : execve()" style="whiteSpace=wrap;html=1;" vertex="1" parent="1">
          <mxGeometry x="366" y="1460" width="120" height="60" as="geometry" />
        </mxCell>
        <mxCell id="l6efxQQN4plKstj2aTA1-69" value="True" style="text;html=1;align=center;verticalAlign=middle;whiteSpace=wrap;rounded=0;fontSize=16;" vertex="1" parent="1">
          <mxGeometry x="426" y="1410" width="60" height="30" as="geometry" />
        </mxCell>
        <mxCell id="l6efxQQN4plKstj2aTA1-70" value="False" style="text;html=1;align=center;verticalAlign=middle;whiteSpace=wrap;rounded=0;fontSize=16;" vertex="1" parent="1">
          <mxGeometry x="714" y="1300" width="60" height="30" as="geometry" />
        </mxCell>
        <mxCell id="l6efxQQN4plKstj2aTA1-73" value="Display output" style="whiteSpace=wrap;html=1;" vertex="1" parent="1">
          <mxGeometry x="366" y="1640" width="120" height="60" as="geometry" />
        </mxCell>
        <mxCell id="l6efxQQN4plKstj2aTA1-81" value="" style="endArrow=none;html=1;rounded=0;fontSize=12;startSize=8;endSize=8;curved=1;exitX=0;exitY=0.5;exitDx=0;exitDy=0;" edge="1" parent="1" source="l6efxQQN4plKstj2aTA1-73">
          <mxGeometry width="50" height="50" relative="1" as="geometry">
            <mxPoint x="365" y="1670" as="sourcePoint" />
            <mxPoint x="240" y="1670" as="targetPoint" />
          </mxGeometry>
        </mxCell>
        <mxCell id="l6efxQQN4plKstj2aTA1-83" value="" style="endArrow=none;html=1;rounded=0;fontSize=12;startSize=8;endSize=8;curved=1;" edge="1" parent="1">
          <mxGeometry width="50" height="50" relative="1" as="geometry">
            <mxPoint x="240" y="1670" as="sourcePoint" />
            <mxPoint x="240" y="475.29411764705884" as="targetPoint" />
          </mxGeometry>
        </mxCell>
        <mxCell id="l6efxQQN4plKstj2aTA1-84" value="" style="endArrow=classic;html=1;rounded=0;fontSize=12;startSize=8;endSize=8;curved=1;entryX=0;entryY=0.5;entryDx=0;entryDy=0;" edge="1" parent="1" target="l6efxQQN4plKstj2aTA1-15">
          <mxGeometry width="50" height="50" relative="1" as="geometry">
            <mxPoint x="240" y="475" as="sourcePoint" />
            <mxPoint x="290" y="430" as="targetPoint" />
          </mxGeometry>
        </mxCell>
      </root>
    </mxGraphModel>
  </diagram>
</mxfile>
